<?xml version="1.0" standalone="no"?>
<!DOCTYPE svg PUBLIC "-//W3C//DTD SVG 20010904//EN"
 "http://www.w3.org/TR/2001/REC-SVG-20010904/DTD/svg10.dtd">
<svg version="1.0" xmlns="http://www.w3.org/2000/svg"
 width="64.000000pt" height="64.000000pt" viewBox="0 0 64.000000 64.000000"
 preserveAspectRatio="xMidYMid meet">

<g transform="translate(0.000000,64.000000) scale(0.100000,-0.100000)"
fill="#000000" stroke="none">
<path d="M247 612 c-21 -23 -22 -58 -1 -66 30 -12 41 6 29 47 -10 37 -11 38
-28 19z"/>
<path d="M364 590 c-9 -31 -8 -40 3 -44 40 -16 59 36 25 67 -17 16 -19 14 -28
-23z"/>
<path d="M148 492 c-81 -89 -122 -193 -138 -344 -13 -128 -13 -139 2 -113 22
41 52 65 80 65 25 0 28 3 28 33 0 43 25 77 56 77 21 0 24 5 24 34 0 37 32 86
57 86 11 0 6 10 -15 35 -32 35 -44 77 -40 129 4 43 -15 42 -54 -2z"/>
<path d="M435 520 c-3 -6 -4 -19 0 -30 11 -33 -6 -91 -37 -126 -22 -24 -26
-34 -15 -34 25 0 57 -49 57 -86 0 -29 3 -34 24 -34 31 0 56 -34 56 -77 0 -30
3 -33 29 -33 20 0 37 -9 55 -31 14 -17 26 -35 26 -41 0 -6 2 -9 5 -6 3 3 1 55
-5 115 -15 159 -55 263 -137 354 -37 41 -48 46 -58 29z"/>
<path d="M257 273 c-4 -3 -7 -15 -7 -25 0 -13 8 -18 29 -18 56 0 52 -40 -8
-81 -48 -33 -60 -72 -34 -108 22 -29 64 -45 96 -37 12 3 36 18 52 34 26 25 31
27 41 13 10 -12 15 -8 33 27 11 23 21 44 21 47 0 5 -81 -5 -89 -11 -2 -2 2
-11 10 -21 10 -12 10 -14 1 -9 -7 4 -25 -3 -43 -18 -33 -28 -58 -33 -77 -14
-21 21 -13 46 23 68 68 42 83 93 40 135 -23 24 -73 34 -88 18z"/>
</g>
</svg>
