<svg xmlns="http://www.w3.org/2000/svg" height="24" viewBox="0 0 58.000000 58.000000">
    <g transform="translate(0.000000,58.000000) scale(0.100000,-0.100000)" fill="#000000" stroke="none">
        <path d="M505 1258 c-30 -23 -64 -90 -65 -124 0 -11 9 -29 20 -39 25 -22 95
-24 117 -2 15 14 14 20 -6 68 -14 31 -21 65 -19 85 5 40 -8 43 -47 12z" />
        <path d="M728 1246 c2 -20 -5 -54 -19 -85 -21 -49 -21 -53 -5 -69 22 -22 90
-20 116 3 11 10 20 29 20 42 0 33 -34 97 -66 122 -38 30 -51 27 -46 -13z" />
        <path d="M295 1008 c-74 -77 -173 -240 -214 -353 -53 -146 -71 -259 -77 -470
l-5 -190 36 72 c46 94 88 127 159 128 l51 0 6 72 c4 43 15 86 26 105 16 29 25
34 68 38 l50 5 7 62 c11 102 49 153 131 173 l47 12 -42 27 c-86 55 -123 141
-116 266 6 93 -2 115 -40 115 -19 0 -42 -17 -87 -62z" />
        <path d="M861 1053 c-5 -9 -7 -50 -4 -89 10 -127 -29 -220 -114 -274 l-42 -27
48 -12 c79 -20 118 -73 129 -174 l7 -62 50 -5 c43 -4 52 -9 68 -38 11 -19 22
-62 26 -105 l6 -72 40 -1 c22 0 48 -2 57 -2 29 -3 89 -72 120 -136 l29 -61 -5
190 c-8 293 -50 456 -168 656 -102 173 -215 269 -247 212z" />
        <path d="M500 550 c-24 -24 -25 -48 -4 -78 12 -18 25 -22 64 -22 39 0 52 -4
64 -22 22 -30 7 -51 -77 -108 -78 -53 -107 -98 -107 -165 0 -101 77 -160 200
-153 65 3 70 5 119 51 27 26 55 47 61 47 5 0 19 -9 31 -21 17 -17 23 -18 36
-8 24 20 84 149 81 172 -3 20 -8 22 -58 19 -30 -2 -73 -7 -95 -11 -35 -6 -40
-10 -40 -33 0 -20 -11 -34 -42 -57 -24 -17 -43 -35 -43 -39 0 -5 -12 -14 -26
-21 -36 -16 -101 2 -115 33 -16 34 1 59 64 94 128 72 170 183 106 274 -45 62
-176 91 -219 48z" />
    </g>
</svg>