<?xml version="1.0" encoding="iso-8859-1"?>
<!-- Generator: Adobe Illustrator 19.0.0, SVG Export Plug-In . SVG Version: 6.00 Build 0)  -->
<svg version="1.1" id="Layer_1" xmlns="http://www.w3.org/2000/svg" xmlns:xlink="http://www.w3.org/1999/xlink" x="0px" y="0px"
	 viewBox="0 0 512 512" style="enable-background:new 0 0 512 512;" xml:space="preserve">
<path style="fill:#F2DB79;" d="M372.645,196.682c-76.963,0-139.353,62.391-139.353,139.356c0,76.964,62.39,139.356,139.353,139.356
	S512,413.002,512,336.038C512,259.073,449.608,196.682,372.645,196.682z M372.645,436.683c-55.496,0-100.641-45.15-100.641-100.647
	c0-55.496,45.146-100.646,100.641-100.646c55.498,0,100.645,45.15,100.645,100.646C473.29,391.534,428.143,436.683,372.645,436.683z
	"/>
<path style="fill:#DDC045;" d="M252.635,406.84c-22.613,18.636-51.566,29.843-83.087,29.843c-72.145,0-130.84-58.695-130.84-130.839
	c0-72.145,58.695-130.84,130.84-130.84s130.839,58.695,130.839,130.841c0,25.644-7.445,49.569-20.247,69.782
	c5.516,12.843,13.632,24.304,23.677,33.742c22.115-28.64,35.28-64.543,35.28-103.524c0-93.641-75.91-169.549-169.549-169.549
	C75.909,136.295,0,212.205,0,305.845c0,93.637,75.909,169.548,169.549,169.548c40.691,0,78.031-14.341,107.254-38.238
	C267.408,428.25,259.263,418.05,252.635,406.84z"/>
<path style="fill:#FFC529;" d="M375.015,68.799c-10.569,7.12-16.919,13.468-24.039,24.038c-0.852,1.264-2.708,1.264-3.56,0
	c-7.12-10.57-13.469-16.918-24.039-24.038c-1.264-0.852-1.264-2.708,0-3.56c10.57-7.12,16.919-13.469,24.039-24.038
	c0.852-1.263,2.708-1.263,3.56,0c7.12,10.57,13.469,16.918,24.039,24.038C376.278,66.089,376.278,67.947,375.015,68.799z"/>
<g>
	<path style="fill:#FFB129;" d="M282.668,122.207l-14.529-14.528c-1.346-1.346-1.346-3.529,0-4.874l14.527-14.527
		c1.346-1.346,3.529-1.346,4.874,0l14.528,14.527c1.346,1.346,1.346,3.529,0,4.874l-14.526,14.527
		C286.196,123.552,284.014,123.552,282.668,122.207z"/>
	<path style="fill:#FFB129;" d="M78.946,71.546l-14.53-14.528c-1.346-1.346-1.346-3.529,0-4.875l14.528-14.526
		c1.346-1.346,3.529-1.346,4.874,0l14.528,14.527c1.346,1.346,1.346,3.529,0,4.874L83.821,71.546
		C82.475,72.892,80.292,72.892,78.946,71.546z"/>
</g>
<g>
	<path style="fill:#FF8163;" d="M393.216,146.638c-6.165,0-12,2.368-16.421,6.663c-1.658,1.61-3.049,3.424-4.149,5.386
		c-1.102-1.962-2.492-3.776-4.15-5.386c-4.421-4.296-10.252-6.663-16.422-6.663c-12.997,0-23.571,10.574-23.571,23.571
		c0,7.351,3.335,14.145,9.155,18.647l32.761,26.286c0.584,0.467,1.294,0.707,2.011,0.707c0.072,0,0.356,0,0.426,0
		c0.719,0,1.434-0.24,2.015-0.707l32.762-26.286c5.817-4.504,9.154-11.296,9.154-18.647
		C416.788,157.212,406.215,146.638,393.216,146.638z"/>
	<path style="fill:#FF8163;" d="M194.449,73.202c-7.465,0-14.524,2.864-19.878,8.066c-2.004,1.948-3.686,4.144-5.022,6.52
		c-1.334-2.375-3.017-4.572-5.022-6.52c-5.354-5.201-12.413-8.066-19.878-8.066c-15.733,0-28.531,12.799-28.531,28.531
		c0,8.898,4.037,17.122,11.08,22.573l39.656,31.819c0.704,0.565,1.566,0.857,2.436,0.857c0.085,0,0.43,0,0.516,0
		c0.869,0,1.731-0.292,2.435-0.857l39.657-31.819c7.043-5.45,11.081-13.675,11.081-22.573
		C222.979,86.001,210.181,73.202,194.449,73.202z"/>
</g>
<g style="opacity:0.1;">
	<path d="M360.115,177.998c-5.818-4.504-9.154-11.297-9.154-18.647c0-4.618,1.34-8.927,3.644-12.567
		c-0.835-0.089-1.677-0.144-2.529-0.144c-12.997,0-23.571,10.574-23.571,23.571c0,7.351,3.335,14.145,9.155,18.647l32.761,26.286
		c0.584,0.467,1.294,0.707,2.011,0.707c0.072,0,0.356,0,0.426,0c0.719,0,1.434-0.24,2.015-0.707l15.769-12.652L360.115,177.998z"/>
</g>
<g style="opacity:0.1;">
	<path d="M149.654,113.446c-7.044-5.45-11.081-13.675-11.081-22.573c0-6.67,2.306-12.806,6.156-17.669
		c-0.026,0-0.053-0.002-0.078-0.002c-15.733,0-28.531,12.799-28.531,28.531c0,8.898,4.037,17.122,11.08,22.573l39.656,31.819
		c0.704,0.565,1.566,0.857,2.436,0.857c0.085,0,0.43,0,0.516,0c0.869,0,1.731-0.292,2.435-0.857l15.301-12.276L149.654,113.446z"/>
</g>
<g>
</g>
<g>
</g>
<g>
</g>
<g>
</g>
<g>
</g>
<g>
</g>
<g>
</g>
<g>
</g>
<g>
</g>
<g>
</g>
<g>
</g>
<g>
</g>
<g>
</g>
<g>
</g>
<g>
</g>
</svg>
